<svg xmlns="http://www.w3.org/2000/svg" width="17" height="17" viewBox="0 0 17 17" fill="none">
  <path d="M8.08236 12.3015L3.05433 7.3297L4.44615 5.87185L7.06073 8.45719L7.01491 0.307322L9.01487 0.296076L9.0607 8.44595L11.646 5.83137L13.0542 7.27347L8.08236 12.3015ZM2.10495 16.3352C1.55495 16.3383 1.08286 16.1449 0.688662 15.7551C0.294464 15.3653 0.0961546 14.8958 0.0937326 14.3465L0.0768648 11.3465L2.07683 11.3353L2.0937 14.3352L14.0935 14.2677L14.0766 11.2678L16.0766 11.2565L16.0935 14.2565C16.0966 14.8065 15.9032 15.2786 15.5134 15.6728C15.1236 16.067 14.6541 16.2653 14.1048 16.2677L2.10495 16.3352Z" fill="white"/>
</svg>