<svg xmlns="http://www.w3.org/2000/svg" width="36" height="36" viewBox="0 0 36 36" fill="none">
  <path d="M18.0793 2.98682C16.1182 2.98682 14.1762 3.37309 12.3643 4.12359C10.5525 4.87409 8.90618 5.97412 7.51943 7.36086C4.71878 10.1615 3.14539 13.96 3.14539 17.9207C3.14539 24.5215 7.43142 30.1218 13.3602 32.108C14.1069 32.2274 14.3458 31.7645 14.3458 31.3613V28.8374C10.2091 29.7335 9.32803 26.8363 9.32803 26.8363C8.64107 25.104 7.67037 24.641 7.67037 24.641C6.31138 23.7151 7.7749 23.745 7.7749 23.745C9.2683 23.8495 10.0598 25.2832 10.0598 25.2832C11.359 27.5531 13.5543 26.8811 14.4056 26.5227C14.54 25.552 14.9283 24.8949 15.3464 24.5215C12.0311 24.1482 8.55147 22.8639 8.55147 17.174C8.55147 15.5164 9.11896 14.1873 10.0897 13.127C9.94032 12.7536 9.41764 11.2005 10.239 9.1844C10.239 9.1844 11.4935 8.78118 14.3458 10.7077C15.5256 10.3791 16.8099 10.2148 18.0793 10.2148C19.3487 10.2148 20.633 10.3791 21.8128 10.7077C24.6652 8.78118 25.9196 9.1844 25.9196 9.1844C26.741 11.2005 26.2183 12.7536 26.069 13.127C27.0397 14.1873 27.6072 15.5164 27.6072 17.174C27.6072 22.8788 24.1126 24.1333 20.7824 24.5066C21.32 24.9696 21.8128 25.8805 21.8128 27.2694V31.3613C21.8128 31.7645 22.0517 32.2424 22.8134 32.108C28.7421 30.1068 33.0132 24.5215 33.0132 17.9207C33.0132 15.9596 32.627 14.0176 31.8765 12.2058C31.126 10.3939 30.0259 8.74761 28.6392 7.36086C27.2525 5.97412 25.6062 4.87409 23.7943 4.12359C21.9824 3.37309 20.0405 2.98682 18.0793 2.98682Z" fill="#0367FC"/>
</svg>