<svg width="1600" height="900" viewBox="0 0 1600 900" fill="none" xmlns="http://www.w3.org/2000/svg">
<g clip-path="url(#clip0_348_2)">
<rect width="1600" height="900" rx="24" fill="url(#paint0_linear_348_2)"/>
<rect width="1600" height="96" transform="matrix(1 0 0 -1 0 96)" fill="#212121"/>
<mask id="mask0_348_2" style="mask-type:alpha" maskUnits="userSpaceOnUse" x="0" y="8" width="1280" height="88">
<rect width="1280" height="88" transform="matrix(1 0 0 -1 0 96)" fill="#212121"/>
</mask>
<g mask="url(#mask0_348_2)">
<mask id="mask1_348_2" style="mask-type:alpha" maskUnits="userSpaceOnUse" x="0" y="-305" width="1368" height="401">
<path d="M436.5 -20H436.5C223 -20 112 96 112 96H1368V-304C1285.5 -304 1142.64 -283.109 1086 -195C973.5 -20.0001 650 -20 436.5 -20Z" fill="url(#paint1_linear_348_2)"/>
<path d="M1368 -304V-185.5C891 125.5 787.86 56.5 710.947 -65.1199C608.168 -227.642 121.075 -275.641 0 -265.453V-304H1368Z" fill="url(#paint2_linear_348_2)"/>
<path d="M1368 -147.5V-304H0V1.78781C92.2698 26.2882 197.695 48.1607 374.5 1.7878C410.225 -7.58224 476.524 -29.322 509.92 -38.9C686.398 -89.513 704.5 -147.5 1368 -147.5Z" fill="url(#paint3_linear_348_2)"/>
<path d="M1251.86 -304H1368C1354.37 -297.387 1333.1 -289.996 1251.86 -288.229C589.401 -273.821 415.227 -159.63 238.5 -29.8902C210.875 -9.60971 183.217 10.6946 153.666 30.5347C97.6549 68.14 46.3166 88.3237 0 96V-304H1251.86Z" fill="url(#paint4_linear_348_2)"/>
</mask>
<g mask="url(#mask1_348_2)">
<rect width="1671" height="601" transform="matrix(1 0 0 -1 -172 194)" fill="#3D3D3D"/>
</g>
</g>
<circle cx="48" cy="50" r="24" fill="#F5F5F5"/>
<rect x="88" y="38" width="103.667" height="24" rx="12" fill="#F5F5F5"/>
<rect x="207.667" y="38" width="103.667" height="24" rx="12" fill="#D9D9D9"/>
<rect x="327.333" y="38" width="103.667" height="24" rx="12" fill="#D9D9D9"/>
<g clip-path="url(#clip1_348_2)">
<path d="M90.5355 144.929C67.044 144.929 48 163.973 48 187.464C48 210.957 67.0443 230 90.5355 230C114.029 230 133.071 210.957 133.071 187.464C133.071 163.975 114.029 144.931 90.5349 144.931L90.5352 144.929L90.5355 144.929ZM110.042 206.278C109.28 207.527 107.644 207.923 106.395 207.156C96.4078 201.056 83.8358 199.674 69.0298 203.057C68.3442 203.213 67.6247 203.091 67.0295 202.716C66.4342 202.342 66.012 201.747 65.8556 201.061C65.7777 200.722 65.7675 200.37 65.8255 200.027C65.8836 199.684 66.0088 199.355 66.194 199.06C66.3792 198.765 66.6208 198.51 66.9049 198.309C67.1889 198.107 67.5099 197.964 67.8495 197.887C84.0528 194.185 97.951 195.779 109.163 202.631C110.413 203.398 110.809 205.028 110.042 206.278ZM115.248 194.696C114.288 196.256 112.246 196.749 110.687 195.789C99.2533 188.761 81.8247 186.726 68.3014 190.831C66.5475 191.36 64.6952 190.372 64.1628 188.621C63.6345 186.867 64.6234 185.018 66.3743 184.485C81.8217 179.798 101.026 182.068 114.156 190.137C115.715 191.097 116.208 193.139 115.248 194.696V194.696ZM115.695 182.635C101.986 174.492 79.368 173.743 66.2793 177.717C64.1775 178.354 61.9546 177.167 61.3179 175.065C60.6809 172.963 61.8662 170.741 63.9698 170.102C78.9944 165.541 103.972 166.423 119.755 175.792C121.65 176.914 122.269 179.356 121.147 181.244C120.03 183.135 117.581 183.758 115.697 182.635H115.695V182.635Z" fill="#1ED760"/>
</g>
<path d="M189.106 179.464L183.48 181.188C183.162 179.419 181.71 176.651 177.627 176.651C174.587 176.651 172.591 178.602 172.591 180.734C172.591 182.504 173.725 183.91 176.084 184.364L180.576 185.226C186.429 186.36 189.56 190.172 189.56 194.709C189.56 199.654 185.431 204.645 177.945 204.645C169.415 204.645 165.649 199.155 165.15 194.573L170.957 193.03C171.23 196.206 173.453 199.064 177.99 199.064C181.347 199.064 183.208 197.386 183.208 195.117C183.208 193.257 181.801 191.805 179.306 191.306L174.814 190.398C169.687 189.355 166.375 186.043 166.375 181.188C166.375 175.471 171.502 171.116 177.582 171.116C185.386 171.116 188.38 175.834 189.106 179.464ZM199.762 212.585H193.728V181.642H199.581V184.364C200.579 182.64 203.074 181.143 206.432 181.143C212.965 181.143 216.731 186.134 216.731 192.758C216.731 199.518 212.511 204.509 206.205 204.509C203.12 204.509 200.851 203.284 199.762 201.787V212.585ZM210.787 192.803C210.787 188.856 208.337 186.542 205.252 186.542C202.167 186.542 199.671 188.856 199.671 192.803C199.671 196.75 202.167 199.11 205.252 199.11C208.337 199.11 210.787 196.796 210.787 192.803ZM231.536 199.155C234.485 199.155 237.207 197.023 237.207 192.803C237.207 188.584 234.485 186.451 231.536 186.451C228.587 186.451 225.864 188.584 225.864 192.803C225.864 196.977 228.587 199.155 231.536 199.155ZM231.536 180.961C238.205 180.961 243.242 185.907 243.242 192.803C243.242 199.654 238.205 204.645 231.536 204.645C224.866 204.645 219.83 199.654 219.83 192.803C219.83 185.907 224.866 180.961 231.536 180.961ZM255.357 174.972V181.642H259.849V186.996H255.357V196.342C255.357 198.293 256.265 198.928 257.989 198.928C258.715 198.928 259.531 198.838 259.849 198.747V203.738C259.304 203.964 258.216 204.282 256.446 204.282C252.09 204.282 249.368 201.696 249.368 197.386V186.996H245.33V181.642H246.464C248.824 181.642 249.913 180.099 249.913 178.103V174.972H255.357ZM271.009 203.964H264.975V181.642H271.009V203.964ZM264.249 174.337C264.249 172.25 265.928 170.571 267.969 170.571C270.056 170.571 271.69 172.25 271.69 174.337C271.69 176.333 270.056 178.012 267.969 178.012C265.928 178.012 264.249 176.333 264.249 174.337ZM287.814 176.107C286.453 176.107 284.684 176.696 284.684 179.192V181.642H289.72V186.814H284.684V203.964H278.604V186.814H274.883V181.642H278.604V179.101C278.604 174.065 281.78 170.798 286.725 170.798C287.996 170.798 289.221 171.025 289.72 171.252V176.333C289.402 176.243 288.812 176.107 287.814 176.107ZM302.463 212.766H296.065L301.329 201.151L291.846 181.642H298.606L304.55 194.709L310.04 181.642H316.482L302.463 212.766Z" fill="#EEEEEE"/>
<path d="M351.962 173.741H360.832C363.366 173.741 365.363 174.419 366.822 175.776C368.307 177.133 369.049 178.912 369.049 181.113C369.049 182.521 368.678 183.737 367.936 184.761C367.193 185.785 366.208 186.527 364.979 186.988C366.489 187.372 367.68 188.178 368.55 189.407C369.446 190.61 369.894 191.992 369.894 193.554C369.894 195.704 369.113 197.483 367.552 198.891C365.99 200.273 363.968 200.964 361.485 200.964H351.962V173.741ZM355.725 185.644H360.41C361.894 185.644 363.072 185.247 363.942 184.454C364.813 183.635 365.248 182.585 365.248 181.305C365.248 180 364.8 178.963 363.904 178.195C363.008 177.427 361.792 177.043 360.256 177.043H355.725V185.644ZM355.725 197.662H360.947C362.483 197.662 363.712 197.266 364.633 196.472C365.581 195.678 366.054 194.629 366.054 193.323C366.054 191.967 365.632 190.892 364.787 190.098C363.942 189.279 362.714 188.869 361.101 188.869H355.725V197.662ZM379.097 208.682H375.142L379.75 198.929L371.801 182.495H375.948L381.708 195.243L387.237 182.495H391.115L379.097 208.682ZM403.035 196.011C403.035 194.424 403.547 193.157 404.571 192.21C405.595 191.237 406.952 190.636 408.641 190.405L413.633 189.676C414.58 189.548 415.054 189.087 415.054 188.293C415.054 187.321 414.721 186.527 414.055 185.913C413.39 185.298 412.391 184.991 411.06 184.991C409.832 184.991 408.859 185.337 408.142 186.028C407.425 186.693 407.003 187.589 406.875 188.716L403.419 187.909C403.598 186.143 404.405 184.71 405.838 183.609C407.272 182.483 408.987 181.919 410.983 181.919C413.594 181.919 415.527 182.559 416.781 183.839C418.036 185.094 418.663 186.706 418.663 188.677V197.931C418.663 199.032 418.74 200.043 418.893 200.964H415.361C415.233 200.197 415.169 199.365 415.169 198.469C414.657 199.288 413.902 200.005 412.903 200.619C411.931 201.233 410.702 201.54 409.217 201.54C407.4 201.54 405.915 201.003 404.763 199.928C403.611 198.827 403.035 197.522 403.035 196.011ZM409.716 198.507C411.329 198.507 412.622 198.072 413.594 197.202C414.567 196.331 415.054 194.949 415.054 193.055V192.21L409.409 193.055C408.59 193.183 407.937 193.477 407.451 193.938C406.965 194.399 406.721 195.026 406.721 195.819C406.721 196.536 406.99 197.163 407.528 197.701C408.091 198.238 408.82 198.507 409.716 198.507ZM434.538 182.303V186.143C434 186.066 433.475 186.028 432.963 186.028C429.585 186.028 427.895 187.922 427.895 191.711V200.964H424.286V182.495H427.818V185.721C428.945 183.366 430.788 182.188 433.347 182.188C433.757 182.188 434.154 182.227 434.538 182.303ZM440.347 191.672C440.347 193.618 440.821 195.205 441.768 196.434C442.741 197.662 444.072 198.277 445.761 198.277C447.374 198.277 448.667 197.65 449.64 196.395C450.612 195.141 451.099 193.541 451.099 191.596C451.099 189.676 450.625 188.127 449.678 186.949C448.731 185.772 447.438 185.183 445.8 185.183C444.162 185.183 442.843 185.785 441.845 186.988C440.847 188.191 440.347 189.752 440.347 191.672ZM451.137 198.469V198.161C450.651 199.109 449.908 199.902 448.91 200.542C447.937 201.156 446.773 201.464 445.416 201.464C442.779 201.464 440.655 200.542 439.042 198.699C437.455 196.83 436.661 194.488 436.661 191.672C436.661 188.985 437.48 186.706 439.119 184.838C440.757 182.943 442.856 181.996 445.416 181.996C446.926 181.996 448.155 182.303 449.102 182.918C450.049 183.507 450.702 184.236 451.06 185.106V173.165H454.631V197.547C454.631 198.801 454.695 199.941 454.823 200.964H451.329C451.201 200.248 451.137 199.416 451.137 198.469ZM465.378 208.682H461.423L466.031 198.929L458.083 182.495H462.23L467.989 195.243L473.518 182.495H477.397L465.378 208.682ZM492.854 198.737C492.367 199.659 491.625 200.363 490.627 200.849C489.628 201.31 488.553 201.54 487.401 201.54C485.302 201.54 483.625 200.849 482.371 199.467C481.117 198.059 480.49 196.28 480.49 194.13V182.495H484.099V193.592C484.099 194.975 484.432 196.114 485.097 197.01C485.788 197.905 486.851 198.353 488.284 198.353C489.718 198.353 490.806 197.931 491.548 197.086C492.29 196.216 492.662 195.064 492.662 193.631V182.495H496.271V197.547C496.271 198.75 496.335 199.889 496.463 200.964H493.007C492.905 200.401 492.854 199.659 492.854 198.737ZM507.268 176.659V182.495H511.261V185.759H507.268V195.358C507.268 196.229 507.46 196.869 507.844 197.278C508.254 197.688 508.919 197.893 509.841 197.893C510.378 197.893 510.852 197.842 511.261 197.739V200.811C510.647 201.041 509.828 201.156 508.804 201.156C507.217 201.156 505.963 200.696 505.041 199.774C504.12 198.853 503.659 197.56 503.659 195.896V185.759H500.126V182.495H501.125C502.072 182.495 502.776 182.239 503.236 181.727C503.723 181.19 503.966 180.499 503.966 179.654V176.659H507.268ZM514.927 196.011C514.927 194.424 515.439 193.157 516.463 192.21C517.487 191.237 518.844 190.636 520.533 190.405L525.525 189.676C526.472 189.548 526.946 189.087 526.946 188.293C526.946 187.321 526.613 186.527 525.947 185.913C525.282 185.298 524.283 184.991 522.952 184.991C521.724 184.991 520.751 185.337 520.034 186.028C519.317 186.693 518.895 187.589 518.767 188.716L515.311 187.909C515.49 186.143 516.297 184.71 517.73 183.609C519.164 182.483 520.879 181.919 522.875 181.919C525.486 181.919 527.419 182.559 528.673 183.839C529.928 185.094 530.555 186.706 530.555 188.677V197.931C530.555 199.032 530.632 200.043 530.785 200.964H527.253C527.125 200.197 527.061 199.365 527.061 198.469C526.549 199.288 525.794 200.005 524.795 200.619C523.823 201.233 522.594 201.54 521.109 201.54C519.292 201.54 517.807 201.003 516.655 199.928C515.503 198.827 514.927 197.522 514.927 196.011ZM521.608 198.507C523.221 198.507 524.514 198.072 525.486 197.202C526.459 196.331 526.946 194.949 526.946 193.055V192.21L521.301 193.055C520.482 193.183 519.829 193.477 519.343 193.938C518.857 194.399 518.613 195.026 518.613 195.819C518.613 196.536 518.882 197.163 519.42 197.701C519.983 198.238 520.712 198.507 521.608 198.507ZM539.749 200.964H536.178V182.495H539.633V184.953C540.197 183.98 540.99 183.238 542.014 182.726C543.038 182.214 544.113 181.958 545.239 181.958C546.443 181.958 547.543 182.252 548.542 182.841C549.54 183.43 550.282 184.3 550.769 185.452C552.049 183.123 554.109 181.958 556.951 181.958C558.717 181.958 560.214 182.559 561.443 183.763C562.697 184.966 563.325 186.706 563.325 188.985V200.964H559.754V189.369C559.754 188.089 559.421 187.065 558.755 186.297C558.115 185.529 557.143 185.145 555.837 185.145C554.583 185.145 553.559 185.593 552.765 186.489C551.972 187.359 551.575 188.46 551.575 189.791V200.964H547.966V189.369C547.966 188.089 547.633 187.065 546.967 186.297C546.327 185.529 545.355 185.145 544.049 185.145C542.769 185.145 541.732 185.58 540.939 186.45C540.145 187.321 539.749 188.447 539.749 189.829V200.964ZM567.948 196.011C567.948 194.424 568.46 193.157 569.484 192.21C570.508 191.237 571.865 190.636 573.554 190.405L578.546 189.676C579.493 189.548 579.967 189.087 579.967 188.293C579.967 187.321 579.634 186.527 578.968 185.913C578.303 185.298 577.305 184.991 575.973 184.991C574.745 184.991 573.772 185.337 573.055 186.028C572.339 186.693 571.916 187.589 571.788 188.716L568.332 187.909C568.512 186.143 569.318 184.71 570.751 183.609C572.185 182.483 573.9 181.919 575.897 181.919C578.508 181.919 580.44 182.559 581.695 183.839C582.949 185.094 583.576 186.706 583.576 188.677V197.931C583.576 199.032 583.653 200.043 583.806 200.964H580.274C580.146 200.197 580.082 199.365 580.082 198.469C579.57 199.288 578.815 200.005 577.817 200.619C576.844 201.233 575.615 201.54 574.13 201.54C572.313 201.54 570.828 201.003 569.676 199.928C568.524 198.827 567.948 197.522 567.948 196.011ZM574.63 198.507C576.242 198.507 577.535 198.072 578.508 197.202C579.48 196.331 579.967 194.949 579.967 193.055V192.21L574.322 193.055C573.503 193.183 572.85 193.477 572.364 193.938C571.878 194.399 571.635 195.026 571.635 195.819C571.635 196.536 571.903 197.163 572.441 197.701C573.004 198.238 573.734 198.507 574.63 198.507Z" fill="white"/>
<path d="M624.904 206.663C635.507 206.663 644.103 198.068 644.103 187.465C644.103 176.861 635.507 168.266 624.904 168.266C614.301 168.266 605.705 176.861 605.705 187.465C605.705 198.068 614.301 206.663 624.904 206.663Z" stroke="white" stroke-width="2.87979" stroke-linecap="round" stroke-linejoin="round"/>
<path d="M629.383 200.904V197.327C629.431 196.732 629.349 196.137 629.141 195.574C628.933 195.011 628.605 194.5 628.181 194.075C632.2 193.639 636.423 192.155 636.423 185.351C636.42 183.602 635.73 181.924 634.504 180.678C635.087 179.158 635.046 177.468 634.388 175.978C634.388 175.978 632.877 175.542 629.383 177.823C626.447 177.049 623.361 177.049 620.425 177.823C616.931 175.542 615.42 175.98 615.42 175.98C614.763 177.469 614.722 179.157 615.305 180.676C614.069 181.932 613.38 183.624 613.385 185.385C613.385 192.141 617.609 193.624 621.627 194.109C621.208 194.531 620.883 195.037 620.675 195.593C620.468 196.146 620.383 196.737 620.425 197.325V200.904" stroke="white" stroke-width="2.87979" stroke-linecap="round" stroke-linejoin="round"/>
<path d="M620.425 198.412C616.585 199.623 613.384 198.412 611.465 194.672" stroke="white" stroke-width="2.87979" stroke-linecap="round" stroke-linejoin="round"/>
</g>
<defs>
<linearGradient id="paint0_linear_348_2" x1="800" y1="0" x2="800" y2="900" gradientUnits="userSpaceOnUse">
<stop offset="0.348706" stop-color="#555555"/>
<stop offset="1" stop-color="#272727"/>
</linearGradient>
<linearGradient id="paint1_linear_348_2" x1="602" y1="1056.5" x2="1093.5" y2="-176" gradientUnits="userSpaceOnUse">
<stop stop-color="white"/>
<stop offset="1" stop-color="white" stop-opacity="0"/>
</linearGradient>
<linearGradient id="paint2_linear_348_2" x1="482" y1="-962.5" x2="480" y2="25.5" gradientUnits="userSpaceOnUse">
<stop stop-color="white"/>
<stop offset="1" stop-color="white" stop-opacity="0"/>
</linearGradient>
<linearGradient id="paint3_linear_348_2" x1="424" y1="683.5" x2="446.108" y2="-178.587" gradientUnits="userSpaceOnUse">
<stop stop-color="white"/>
<stop offset="1" stop-color="white" stop-opacity="0"/>
</linearGradient>
<linearGradient id="paint4_linear_348_2" x1="587" y1="1216.5" x2="349.03" y2="-245.041" gradientUnits="userSpaceOnUse">
<stop stop-color="white"/>
<stop offset="1" stop-color="white" stop-opacity="0"/>
</linearGradient>
<clipPath id="clip0_348_2">
<rect width="1600" height="900" rx="24" fill="white"/>
</clipPath>
<clipPath id="clip1_348_2">
<rect width="85.071" height="85.071" fill="white" transform="translate(48 144.929)"/>
</clipPath>
</defs>
</svg>