<svg xmlns="http://www.w3.org/2000/svg" width="23" height="32" viewBox="0 0 23 32" fill="none">
  <g clip-path="url(#clip0_576_8)">
    <path d="M11.3328 31.9192L2.09781 29.3554L0.0397949 6.27289H22.6534L20.5933 29.3519L11.3328 31.9192Z" fill="#264DE4"/>
    <path d="M18.8296 27.8823L20.5901 8.16017H11.3467V29.9568L18.8296 27.8823Z" fill="#2965F1"/>
    <path d="M4.7578 16.7212L5.01149 19.5522H11.3467V16.7212H4.7578ZM4.24792 10.9912L4.50525 13.8222H11.3467V10.9912H4.24792ZM11.3467 24.0736L11.3343 24.0768L8.18144 23.2255L7.97987 20.9677H5.13799L5.53457 25.4128L11.3337 27.0225L11.3467 27.019V24.0736Z" fill="#EBEBEB"/>
    <path d="M5.36182 0H8.79051V1.43388H6.7957V2.86777H8.79069V4.30156H5.36182V0ZM9.47634 0H12.9051V1.24685H10.9102V1.4962H12.9051V4.36397H9.47643V3.05463H11.4713V2.80527H9.47625L9.47634 0ZM13.591 0H17.0197V1.24685H15.0248V1.4962H17.0197V4.36397H13.591V3.05463H15.5859V2.80527H13.591V0H13.591Z" fill="black"/>
    <path d="M17.9174 16.7212L18.4285 10.9912H11.3369V13.8222H15.326L15.0684 16.7212H11.3369V19.5522H14.8229L14.4942 23.2238L11.3368 24.076V27.0212L17.1405 25.4128L17.183 24.9345L17.8484 17.4814L17.9174 16.7212Z" fill="white"/>
  </g>
  <defs>
    <clipPath id="clip0_576_8">
      <rect width="22.6933" height="32" fill="white"/>
    </clipPath>
  </defs>
</svg>