<svg xmlns="http://www.w3.org/2000/svg" width="24" height="33" viewBox="0 0 24 33" fill="none">
  <g clip-path="url(#clip0_481_73)">
    <path d="M23.5148 6.44713L21.4167 30.1672L11.9858 32.8058L2.58077 30.1709L0.484863 6.44713H23.5148Z" fill="#E44D26"/>
    <path d="M11.9999 30.7889L19.6206 28.6568L21.4134 8.38684H11.9999V30.7889Z" fill="#F16529"/>
    <path d="M7.92136 14.2062H12V11.2966H4.77051L4.83948 12.0771L5.54813 20.0953H12V17.1857H8.18487L7.92136 14.2062ZM8.57116 21.5501H5.67695L6.08084 26.1187L11.9867 27.7732L12 27.7695V24.7423L11.9873 24.7457L8.77644 23.8707L8.57116 21.5501Z" fill="#EBEBEB"/>
    <path d="M2.62769 0H4.09284V1.46087H5.43315V0H6.89839V4.42387H5.43324V2.94251H4.09293V4.42387H2.62778L2.62769 0ZM8.82503 1.46706H7.53537V0H11.5809V1.46706H10.2905V4.42387H8.8253V1.46706H8.82503ZM12.223 0H13.7507L14.6904 1.55443L15.6293 0H17.1576V4.42387H15.6984V2.23116L14.6904 3.80409H14.6652L13.6565 2.23116V4.42387H12.223V0ZM17.8868 0H19.3524V2.96164H21.4128V4.42387H17.8867V0H17.8868Z" fill="black"/>
    <path d="M11.99 20.0953H15.5402L15.2054 23.8689L11.9899 24.7447V27.7718L17.9004 26.1187L17.9437 25.6271L18.6213 17.967L18.6917 17.1857H11.99V20.0953ZM11.99 14.1991V14.2062H18.954L19.0118 13.5522L19.1432 12.0771L19.2121 11.2966H11.99V14.1991Z" fill="white"/>
  </g>
  <defs>
    <clipPath id="clip0_481_73">
      <rect width="23.1111" height="32.8889" fill="white" transform="translate(0.444336)"/>
    </clipPath>
  </defs>
</svg>