<svg xmlns="http://www.w3.org/2000/svg" width="32" height="32" viewBox="0 0 32 32" fill="none">
  <g clip-path="url(#clip0_576_14)">
    <path d="M0.352051 0.352005H31.6481V31.6483H0.352051V0.352005Z" fill="#F0DB4F"/>
    <path d="M29.0868 24.184C28.8575 22.7562 27.9265 21.557 25.1688 20.4387C24.2108 19.9985 23.1428 19.6832 22.8245 18.9572C22.7115 18.5347 22.6965 18.2967 22.768 18.041C22.9733 17.211 23.964 16.9522 24.7493 17.1902C25.255 17.3597 25.7338 17.7495 26.0225 18.3712C27.373 17.4967 27.3703 17.5025 28.3133 16.9015C27.968 16.3662 27.7838 16.1192 27.5578 15.8902C26.7455 14.983 25.6388 14.5157 23.8688 14.5515L22.9468 14.6707C22.0633 14.894 21.2213 15.3577 20.7275 15.9795C19.246 17.6605 19.6685 20.6025 21.4713 21.8132C23.2473 23.1462 25.8563 23.4495 26.1895 24.696C26.5138 26.222 25.068 26.716 23.631 26.5405C22.572 26.3202 21.983 25.782 21.3463 24.8032C20.1743 25.4815 20.1743 25.4815 18.9693 26.1745C19.255 26.7992 19.5553 27.082 20.0343 27.6232C22.3013 29.9227 27.9743 29.8097 28.9918 26.3292C29.033 26.2097 29.307 25.4127 29.0868 24.184ZM17.3655 14.7357H14.4383L14.4263 22.3037C14.4263 23.9132 14.5095 25.3887 14.2478 25.841C13.8195 26.7305 12.7098 26.6202 12.204 26.4477C11.6893 26.1947 11.4275 25.835 11.1243 25.3265C11.041 25.1805 10.9785 25.0675 10.9575 25.0587L8.57751 26.5162C8.97326 27.3285 9.55626 28.0335 10.303 28.4915C11.4185 29.161 12.9178 29.3662 14.4858 29.0062C15.5063 28.709 16.3868 28.0932 16.8478 27.156C17.5143 25.9272 17.3713 24.44 17.3653 22.795C17.3803 20.1112 17.3655 17.428 17.3655 14.7357Z" fill="#323330"/>
  </g>
  <defs>
    <clipPath id="clip0_576_14">
      <rect width="32" height="32" fill="white"/>
    </clipPath>
  </defs>
</svg>