<svg xmlns="http://www.w3.org/2000/svg" width="36" height="36" viewBox="0 0 36 36" fill="none">
  <path d="M28.3744 4.47998C29.1665 4.47998 29.9262 4.79466 30.4864 5.35479C31.0465 5.91492 31.3612 6.67462 31.3612 7.46677V28.3743C31.3612 29.1664 31.0465 29.9261 30.4864 30.4862C29.9262 31.0464 29.1665 31.3611 28.3744 31.3611H7.46689C6.67474 31.3611 5.91504 31.0464 5.35491 30.4862C4.79478 29.9261 4.4801 29.1664 4.4801 28.3743V7.46677C4.4801 6.67462 4.79478 5.91492 5.35491 5.35479C5.91504 4.79466 6.67474 4.47998 7.46689 4.47998H28.3744ZM27.6277 27.6276V19.7126C27.6277 18.4214 27.1148 17.1831 26.2018 16.2701C25.2887 15.3571 24.0504 14.8441 22.7592 14.8441C21.4898 14.8441 20.0114 15.6207 19.2946 16.7855V15.1279H15.128V27.6276H19.2946V20.2651C19.2946 19.1152 20.2205 18.1744 21.3704 18.1744C21.9249 18.1744 22.4567 18.3947 22.8488 18.7868C23.2409 19.1789 23.4611 19.7106 23.4611 20.2651V27.6276H27.6277ZM10.2745 12.7832C10.9399 12.7832 11.578 12.5189 12.0485 12.0484C12.519 11.5779 12.7834 10.9397 12.7834 10.2743C12.7834 8.88549 11.6633 7.75051 10.2745 7.75051C9.6051 7.75051 8.96316 8.01641 8.48985 8.48972C8.01654 8.96304 7.75063 9.60498 7.75063 10.2743C7.75063 11.6632 8.88561 12.7832 10.2745 12.7832ZM12.3503 27.6276V15.1279H8.21358V27.6276H12.3503Z" fill="#0367FC"/>
</svg>