<svg xmlns="http://www.w3.org/2000/svg" width="33" height="32" viewBox="0 0 33 32" fill="none">
  <g clip-path="url(#clip0_576_22)">
    <path d="M15.929 0.0090332C7.79325 0.0090332 8.30123 3.53719 8.30123 3.53719L8.31027 7.19247H16.0741V8.28988H5.22659C5.22659 8.28988 0.0205078 7.69945 0.0205078 15.9084C0.0205078 24.1176 4.56451 23.8264 4.56451 23.8264H7.27635V20.0171C7.27635 20.0171 7.13016 15.4731 11.7478 15.4731H19.4481C19.4481 15.4731 23.7744 15.543 23.7744 11.2919V4.2629C23.7744 4.2629 24.4315 0.0090332 15.929 0.0090332ZM11.6481 2.46714C11.8315 2.46697 12.0132 2.50298 12.1827 2.57312C12.3523 2.64325 12.5063 2.74612 12.636 2.87585C12.7658 3.00558 12.8686 3.15962 12.9388 3.32915C13.0089 3.49868 13.0449 3.68038 13.0448 3.86384C13.0449 4.04731 13.0089 4.229 12.9388 4.39853C12.8686 4.56806 12.7658 4.7221 12.636 4.85183C12.5063 4.98156 12.3523 5.08443 12.1827 5.15457C12.0132 5.2247 11.8315 5.26071 11.6481 5.26055C11.4646 5.26071 11.2829 5.2247 11.1134 5.15457C10.9438 5.08443 10.7898 4.98156 10.6601 4.85183C10.5303 4.7221 10.4275 4.56806 10.3573 4.39853C10.2872 4.229 10.2512 4.04731 10.2513 3.86384C10.2512 3.68038 10.2872 3.49868 10.3573 3.32915C10.4275 3.15962 10.5303 3.00558 10.6601 2.87585C10.7898 2.74612 10.9438 2.64325 11.1134 2.57312C11.2829 2.50298 11.4646 2.46697 11.6481 2.46714Z" fill="url(#paint0_linear_576_22)"/>
    <path d="M16.16 31.8903C24.2958 31.8903 23.7878 28.3622 23.7878 28.3622L23.7788 24.707H16.0148V23.6096H26.8623C26.8623 23.6096 32.0684 24.2 32.0684 15.9908C32.0684 7.78176 27.5244 8.0729 27.5244 8.0729H24.8126V11.8822C24.8126 11.8822 24.9588 16.4262 20.3411 16.4262H12.6408C12.6408 16.4262 8.3145 16.3563 8.3145 20.6075V27.6366C8.3145 27.6366 7.65756 31.8903 16.1599 31.8903H16.16ZM20.441 29.4325C20.2575 29.4326 20.0758 29.3966 19.9063 29.3265C19.7368 29.2563 19.5827 29.1535 19.453 29.0237C19.3233 28.894 19.2204 28.74 19.1503 28.5704C19.0801 28.4009 19.0441 28.2192 19.0443 28.0358C19.0441 27.8523 19.0801 27.6706 19.1502 27.501C19.2204 27.3315 19.3232 27.1774 19.453 27.0477C19.5827 26.9179 19.7367 26.8151 19.9063 26.7449C20.0758 26.6748 20.2575 26.6388 20.441 26.6389C20.6245 26.6388 20.8062 26.6748 20.9757 26.7449C21.1452 26.815 21.2993 26.9179 21.429 27.0476C21.5587 27.1774 21.6616 27.3314 21.7317 27.5009C21.8019 27.6705 21.8379 27.8522 21.8377 28.0356C21.8379 28.2191 21.8019 28.4008 21.7317 28.5703C21.6616 28.7399 21.5587 28.8939 21.429 29.0236C21.2993 29.1533 21.1452 29.2562 20.9757 29.3264C20.8062 29.3965 20.6245 29.4326 20.441 29.4325Z" fill="url(#paint1_linear_576_22)"/>
  </g>
  <defs>
    <linearGradient id="paint0_linear_576_22" x1="308" y1="286.762" x2="1896.2" y2="1859.12" gradientUnits="userSpaceOnUse">
      <stop stop-color="#387EB8"/>
      <stop offset="1" stop-color="#366994"/>
    </linearGradient>
    <linearGradient id="paint1_linear_576_22" x1="462.893" y1="498.236" x2="2168.44" y2="2110.54" gradientUnits="userSpaceOnUse">
      <stop stop-color="#FFE052"/>
      <stop offset="1" stop-color="#FFC331"/>
    </linearGradient>
    <clipPath id="clip0_576_22">
      <rect width="32.13" height="32" fill="white"/>
    </clipPath>
  </defs>
</svg>